<svg width="74" height="74" viewBox="0 0 74 74" fill="none" xmlns="http://www.w3.org/2000/svg">
<path d="M62.6667 29.6667C61.6942 29.6667 60.7616 30.053 60.074 30.7406C59.3863 31.4282 59 32.3609 59 33.3333V45.7267L53.5734 40.3C51.6573 38.399 49.0675 37.3323 46.3684 37.3323C43.6692 37.3323 41.0795 38.399 39.1634 40.3L36.5967 42.9033L27.5034 33.7733C25.5873 31.8723 22.9975 30.8056 20.2984 30.8056C17.5992 30.8056 15.0095 31.8723 13.0934 33.7733L7.66671 39.2367V18.6667C7.66671 17.6942 8.05302 16.7616 8.74065 16.0739C9.42828 15.3863 10.3609 15 11.3334 15H40.6667C41.6392 15 42.5718 14.6137 43.2594 13.9261C43.9471 13.2384 44.3334 12.3058 44.3334 11.3333C44.3334 10.3609 43.9471 9.42824 43.2594 8.7406C42.5718 8.05297 41.6392 7.66666 40.6667 7.66666H11.3334C8.41599 7.66666 5.6181 8.82559 3.5552 10.8885C1.4923 12.9514 0.333374 15.7493 0.333374 18.6667V63.4733C0.343036 66.1738 1.42008 68.7609 3.32961 70.6704C5.23914 72.58 7.82624 73.657 10.5267 73.6667H56.14C57.1336 73.6587 58.1212 73.5106 59.0734 73.2267C61.1906 72.6328 63.0546 71.3607 64.3793 69.6055C65.704 67.8503 66.4162 65.709 66.4067 63.51V33.3333C66.4068 32.8456 66.3096 32.3627 66.1208 31.913C65.9319 31.4633 65.6553 31.0558 65.307 30.7143C64.9587 30.3729 64.5458 30.1043 64.0924 29.9244C63.6391 29.7445 63.1544 29.6569 62.6667 29.6667ZM11.3334 66.3333C10.3609 66.3333 9.42828 65.947 8.74065 65.2594C8.05302 64.5718 7.66671 63.6391 7.66671 62.6667V49.5767L18.2634 38.98C18.7993 38.4471 19.5243 38.148 20.28 38.148C21.0358 38.148 21.7608 38.4471 22.2967 38.98L49.6867 66.3333H11.3334ZM59 62.6667C58.9765 63.3767 58.7472 64.0645 58.34 64.6467L41.7667 48L44.37 45.4333C44.6329 45.165 44.9467 44.9519 45.293 44.8064C45.6393 44.6609 46.0111 44.5859 46.3867 44.5859C46.7623 44.5859 47.1342 44.6609 47.4804 44.8064C47.8267 44.9519 48.1405 45.165 48.4034 45.4333L59 56.1033V62.6667ZM70 7.66666H66.3334V3.99999C66.3334 3.02753 65.9471 2.0949 65.2594 1.40727C64.5718 0.719636 63.6392 0.333328 62.6667 0.333328C61.6942 0.333328 60.7616 0.719636 60.074 1.40727C59.3863 2.0949 59 3.02753 59 3.99999V7.66666H55.3334C54.3609 7.66666 53.4283 8.05297 52.7406 8.7406C52.053 9.42824 51.6667 10.3609 51.6667 11.3333C51.6667 12.3058 52.053 13.2384 52.7406 13.9261C53.4283 14.6137 54.3609 15 55.3334 15H59V18.6667C59 19.6391 59.3863 20.5718 60.074 21.2594C60.7616 21.947 61.6942 22.3333 62.6667 22.3333C63.6392 22.3333 64.5718 21.947 65.2594 21.2594C65.9471 20.5718 66.3334 19.6391 66.3334 18.6667V15H70C70.9725 15 71.9051 14.6137 72.5928 13.9261C73.2804 13.2384 73.6667 12.3058 73.6667 11.3333C73.6667 10.3609 73.2804 9.42824 72.5928 8.7406C71.9051 8.05297 70.9725 7.66666 70 7.66666Z" fill="#100248"/>
</svg>
